# xmcd
#
# Track frame offsets:
# 150
# 17267
# 30148
# 48368
# 61973
# 75623
# 90691
# 104363
# 116888
# 131548
# 143224
# 153174
# 166384
# 180417
# 192974
# 204401
# 216650
# 230108
# 244258
# 257533
# 271757
# 288946
# 306218
# 317562
# 330012
#
# Disc length: 4564 seconds
#
#
# Revision: 0
# Processed by: cddbd v1.5.1PL2 Copyright (c) Steve Scherf et al.
# Submitted via: FreeRIP 2.945 
#
DISCID=4f11d219
DTITLE=Let's Go Country - Various - Let's Go Coutry
DYEAR=2000
DGENRE=Country
TTITLE0=Don't Cry Joni - Conway Twitty
TTITLE1=Top Of The World - Lynn Anderson
TTITLE2=Garden Party - Ricky Nelson
TTITLE3=Let Me Be There - Olivia Newton John
TTITLE4=Rhinestone Cowboy - Glen Campbell
TTITLE5=Harper Valley P.T.A - Jeannie C. Riley
TTITLE6=9,999,999 Tears - Dickey Lee
TTITLE7=Behind Closed Doors - Charlie Rich
TTITLE8=Bet Your Heart on Me - Johnny Lee
TTITLE9=Silver Threads and Goden Needles - Billie Jo Spears
TTITLE10=Mama Tried - Merie Haggard
TTITLE11=Misty - Ray Stevens
TTITLE12=Save Yours Kisses For Me - Margo Smith
TTITLE13=Reuben James - Kenny rogers and The First Edition
TTITLE14=The Happiest Girl in The Whole USA - Donna Fargo
TTITLE15=Okie From Muskogee - Merle Haggard
TTITLE16=Afternoon Delight - Johnny Carver
TTITLE17=Teddy Bear Song - Barbara Fairchild
TTITLE18=I Fall To Pieces - Wanda Jackson
TTITLE19=Cry - Lynn Anderson
TTITLE20=For The Good Times - Ray Price
TTITLE21=My Elusive Dreams - Charlie Rich
TTITLE22=Hello Darlin' - Conway Twitty
TTITLE23=I Walk The Line - Johnny Cash
TTITLE24=Wasted Days and Wasted Nights - Freddy Fender
EXTD=
EXTT0=
EXTT1=
EXTT2=
EXTT3=
EXTT4=
EXTT5=
EXTT6=
EXTT7=
EXTT8=
EXTT9=
EXTT10=
EXTT11=
EXTT12=
EXTT13=
EXTT14=
EXTT15=
EXTT16=
EXTT17=
EXTT18=
EXTT19=
EXTT20=
EXTT21=
EXTT22=
EXTT23=
EXTT24=
PLAYORDER=
